<svg xmlns="http://www.w3.org/2000/svg" viewBox="0 0 100 100" preserveAspectRatio="xMidYMid" width="108" height="108" style="shape-rendering: auto; display: block; background: rgb(255, 255, 255);" xmlns:xlink="http://www.w3.org/1999/xlink"><g><g transform="rotate(0 50 50)">
  <rect fill="#04010c" height="20" width="8" ry="10" rx="4" y="8" x="46">
    <animate repeatCount="indefinite" begin="-0.9044317154054868s" dur="0.9345794392523364s" keyTimes="0;1" values="1;0" attributeName="opacity"></animate>
  </rect>
</g><g transform="rotate(11.612903225806452 50 50)">
  <rect fill="#04010c" height="20" width="8" ry="10" rx="4" y="8" x="46">
    <animate repeatCount="indefinite" begin="-0.8742839915586372s" dur="0.9345794392523364s" keyTimes="0;1" values="1;0" attributeName="opacity"></animate>
  </rect>
</g><g transform="rotate(23.225806451612904 50 50)">
  <rect fill="#04010c" height="20" width="8" ry="10" rx="4" y="8" x="46">
    <animate repeatCount="indefinite" begin="-0.8441362677117877s" dur="0.9345794392523364s" keyTimes="0;1" values="1;0" attributeName="opacity"></animate>
  </rect>
</g><g transform="rotate(34.83870967741935 50 50)">
  <rect fill="#04010c" height="20" width="8" ry="10" rx="4" y="8" x="46">
    <animate repeatCount="indefinite" begin="-0.8139885438649381s" dur="0.9345794392523364s" keyTimes="0;1" values="1;0" attributeName="opacity"></animate>
  </rect>
</g><g transform="rotate(46.45161290322581 50 50)">
  <rect fill="#04010c" height="20" width="8" ry="10" rx="4" y="8" x="46">
    <animate repeatCount="indefinite" begin="-0.7838408200180886s" dur="0.9345794392523364s" keyTimes="0;1" values="1;0" attributeName="opacity"></animate>
  </rect>
</g><g transform="rotate(58.064516129032256 50 50)">
  <rect fill="#04010c" height="20" width="8" ry="10" rx="4" y="8" x="46">
    <animate repeatCount="indefinite" begin="-0.753693096171239s" dur="0.9345794392523364s" keyTimes="0;1" values="1;0" attributeName="opacity"></animate>
  </rect>
</g><g transform="rotate(69.6774193548387 50 50)">
  <rect fill="#04010c" height="20" width="8" ry="10" rx="4" y="8" x="46">
    <animate repeatCount="indefinite" begin="-0.7235453723243894s" dur="0.9345794392523364s" keyTimes="0;1" values="1;0" attributeName="opacity"></animate>
  </rect>
</g><g transform="rotate(81.29032258064517 50 50)">
  <rect fill="#04010c" height="20" width="8" ry="10" rx="4" y="8" x="46">
    <animate repeatCount="indefinite" begin="-0.6933976484775399s" dur="0.9345794392523364s" keyTimes="0;1" values="1;0" attributeName="opacity"></animate>
  </rect>
</g><g transform="rotate(92.90322580645162 50 50)">
  <rect fill="#04010c" height="20" width="8" ry="10" rx="4" y="8" x="46">
    <animate repeatCount="indefinite" begin="-0.6632499246306903s" dur="0.9345794392523364s" keyTimes="0;1" values="1;0" attributeName="opacity"></animate>
  </rect>
</g><g transform="rotate(104.51612903225806 50 50)">
  <rect fill="#04010c" height="20" width="8" ry="10" rx="4" y="8" x="46">
    <animate repeatCount="indefinite" begin="-0.6331022007838408s" dur="0.9345794392523364s" keyTimes="0;1" values="1;0" attributeName="opacity"></animate>
  </rect>
</g><g transform="rotate(116.12903225806451 50 50)">
  <rect fill="#04010c" height="20" width="8" ry="10" rx="4" y="8" x="46">
    <animate repeatCount="indefinite" begin="-0.6029544769369912s" dur="0.9345794392523364s" keyTimes="0;1" values="1;0" attributeName="opacity"></animate>
  </rect>
</g><g transform="rotate(127.74193548387096 50 50)">
  <rect fill="#04010c" height="20" width="8" ry="10" rx="4" y="8" x="46">
    <animate repeatCount="indefinite" begin="-0.5728067530901416s" dur="0.9345794392523364s" keyTimes="0;1" values="1;0" attributeName="opacity"></animate>
  </rect>
</g><g transform="rotate(139.3548387096774 50 50)">
  <rect fill="#04010c" height="20" width="8" ry="10" rx="4" y="8" x="46">
    <animate repeatCount="indefinite" begin="-0.5426590292432921s" dur="0.9345794392523364s" keyTimes="0;1" values="1;0" attributeName="opacity"></animate>
  </rect>
</g><g transform="rotate(150.96774193548387 50 50)">
  <rect fill="#04010c" height="20" width="8" ry="10" rx="4" y="8" x="46">
    <animate repeatCount="indefinite" begin="-0.5125113053964425s" dur="0.9345794392523364s" keyTimes="0;1" values="1;0" attributeName="opacity"></animate>
  </rect>
</g><g transform="rotate(162.58064516129033 50 50)">
  <rect fill="#04010c" height="20" width="8" ry="10" rx="4" y="8" x="46">
    <animate repeatCount="indefinite" begin="-0.48236358154959297s" dur="0.9345794392523364s" keyTimes="0;1" values="1;0" attributeName="opacity"></animate>
  </rect>
</g><g transform="rotate(174.19354838709677 50 50)">
  <rect fill="#04010c" height="20" width="8" ry="10" rx="4" y="8" x="46">
    <animate repeatCount="indefinite" begin="-0.4522158577027434s" dur="0.9345794392523364s" keyTimes="0;1" values="1;0" attributeName="opacity"></animate>
  </rect>
</g><g transform="rotate(185.80645161290323 50 50)">
  <rect fill="#04010c" height="20" width="8" ry="10" rx="4" y="8" x="46">
    <animate repeatCount="indefinite" begin="-0.42206813385589387s" dur="0.9345794392523364s" keyTimes="0;1" values="1;0" attributeName="opacity"></animate>
  </rect>
</g><g transform="rotate(197.41935483870967 50 50)">
  <rect fill="#04010c" height="20" width="8" ry="10" rx="4" y="8" x="46">
    <animate repeatCount="indefinite" begin="-0.3919204100090443s" dur="0.9345794392523364s" keyTimes="0;1" values="1;0" attributeName="opacity"></animate>
  </rect>
</g><g transform="rotate(209.03225806451613 50 50)">
  <rect fill="#04010c" height="20" width="8" ry="10" rx="4" y="8" x="46">
    <animate repeatCount="indefinite" begin="-0.3617726861621947s" dur="0.9345794392523364s" keyTimes="0;1" values="1;0" attributeName="opacity"></animate>
  </rect>
</g><g transform="rotate(220.6451612903226 50 50)">
  <rect fill="#04010c" height="20" width="8" ry="10" rx="4" y="8" x="46">
    <animate repeatCount="indefinite" begin="-0.33162496231534516s" dur="0.9345794392523364s" keyTimes="0;1" values="1;0" attributeName="opacity"></animate>
  </rect>
</g><g transform="rotate(232.25806451612902 50 50)">
  <rect fill="#04010c" height="20" width="8" ry="10" rx="4" y="8" x="46">
    <animate repeatCount="indefinite" begin="-0.3014772384684956s" dur="0.9345794392523364s" keyTimes="0;1" values="1;0" attributeName="opacity"></animate>
  </rect>
</g><g transform="rotate(243.8709677419355 50 50)">
  <rect fill="#04010c" height="20" width="8" ry="10" rx="4" y="8" x="46">
    <animate repeatCount="indefinite" begin="-0.27132951462164606s" dur="0.9345794392523364s" keyTimes="0;1" values="1;0" attributeName="opacity"></animate>
  </rect>
</g><g transform="rotate(255.48387096774192 50 50)">
  <rect fill="#04010c" height="20" width="8" ry="10" rx="4" y="8" x="46">
    <animate repeatCount="indefinite" begin="-0.24118179077479648s" dur="0.9345794392523364s" keyTimes="0;1" values="1;0" attributeName="opacity"></animate>
  </rect>
</g><g transform="rotate(267.0967741935484 50 50)">
  <rect fill="#04010c" height="20" width="8" ry="10" rx="4" y="8" x="46">
    <animate repeatCount="indefinite" begin="-0.21103406692794693s" dur="0.9345794392523364s" keyTimes="0;1" values="1;0" attributeName="opacity"></animate>
  </rect>
</g><g transform="rotate(278.7096774193548 50 50)">
  <rect fill="#04010c" height="20" width="8" ry="10" rx="4" y="8" x="46">
    <animate repeatCount="indefinite" begin="-0.18088634308109736s" dur="0.9345794392523364s" keyTimes="0;1" values="1;0" attributeName="opacity"></animate>
  </rect>
</g><g transform="rotate(290.3225806451613 50 50)">
  <rect fill="#04010c" height="20" width="8" ry="10" rx="4" y="8" x="46">
    <animate repeatCount="indefinite" begin="-0.1507386192342478s" dur="0.9345794392523364s" keyTimes="0;1" values="1;0" attributeName="opacity"></animate>
  </rect>
</g><g transform="rotate(301.93548387096774 50 50)">
  <rect fill="#04010c" height="20" width="8" ry="10" rx="4" y="8" x="46">
    <animate repeatCount="indefinite" begin="-0.12059089538739824s" dur="0.9345794392523364s" keyTimes="0;1" values="1;0" attributeName="opacity"></animate>
  </rect>
</g><g transform="rotate(313.5483870967742 50 50)">
  <rect fill="#04010c" height="20" width="8" ry="10" rx="4" y="8" x="46">
    <animate repeatCount="indefinite" begin="-0.09044317154054868s" dur="0.9345794392523364s" keyTimes="0;1" values="1;0" attributeName="opacity"></animate>
  </rect>
</g><g transform="rotate(325.16129032258067 50 50)">
  <rect fill="#04010c" height="20" width="8" ry="10" rx="4" y="8" x="46">
    <animate repeatCount="indefinite" begin="-0.06029544769369912s" dur="0.9345794392523364s" keyTimes="0;1" values="1;0" attributeName="opacity"></animate>
  </rect>
</g><g transform="rotate(336.7741935483871 50 50)">
  <rect fill="#04010c" height="20" width="8" ry="10" rx="4" y="8" x="46">
    <animate repeatCount="indefinite" begin="-0.03014772384684956s" dur="0.9345794392523364s" keyTimes="0;1" values="1;0" attributeName="opacity"></animate>
  </rect>
</g><g transform="rotate(348.38709677419354 50 50)">
  <rect fill="#04010c" height="20" width="8" ry="10" rx="4" y="8" x="46">
    <animate repeatCount="indefinite" begin="0s" dur="0.9345794392523364s" keyTimes="0;1" values="1;0" attributeName="opacity"></animate>
  </rect>
</g><g></g></g><!-- [ldio] generated by https://loading.io --></svg>